HIERARCHY
ROOT Hips
{
	OFFSET 0.000000 0.000000 0.000000
	CHANNELS 6 Xposition Yposition Zposition Zrotation Yrotation Xrotation 
	JOINT LHipJoint
	{
		OFFSET 0.000000 0.000000 0.000000
		CHANNELS 3 Zrotation Yrotation Xrotation
		JOINT LeftUpLeg
		{
			OFFSET 1.363060 -1.794630 0.839290
			CHANNELS 3 Zrotation Yrotation Xrotation
			JOINT LeftLeg
			{
				OFFSET 2.448110 -6.726130 0.000000
				CHANNELS 3 Zrotation Yrotation Xrotation
				JOINT LeftFoot
				{
					OFFSET 2.562200 -7.039590 0.000000
					CHANNELS 3 Zrotation Yrotation Xrotation
					JOINT LeftToeBase
					{
						OFFSET 0.157640 -0.433110 2.322550
						CHANNELS 3 Zrotation Yrotation Xrotation
						End Site
						{
							OFFSET 0.000000 0.000000 0.000000
						}
					}
				}
			}
		}
	}
	JOINT RHipJoint
	{
		OFFSET 0.000000 0.000000 0.000000
		CHANNELS 3 Zrotation Yrotation Xrotation
		JOINT RightUpLeg
		{
			OFFSET -1.305520 -1.794630 0.839290
			CHANNELS 3 Zrotation Yrotation Xrotation
			JOINT RightLeg
			{
				OFFSET -2.542530 -6.985550 0.000000
				CHANNELS 3 Zrotation Yrotation Xrotation
				JOINT RightFoot
				{
					OFFSET -2.568260 -7.056230 0.000000
					CHANNELS 3 Zrotation Yrotation Xrotation
					JOINT RightToeBase
					{
						OFFSET -0.164730 -0.452590 2.363150
						CHANNELS 3 Zrotation Yrotation Xrotation
						End Site
						{
							OFFSET 0.000000 0.000000 0.000000
						}
					}
				}
			}
		}
	}
	JOINT LowerBack
	{
		OFFSET 0.000000 0.000000 0.000000
		CHANNELS 3 Zrotation Yrotation Xrotation
		JOINT Spine
		{
			OFFSET 0.028270 2.035590 -0.193380
			CHANNELS 3 Zrotation Yrotation Xrotation
			JOINT Spine1
			{
				OFFSET 0.056720 2.048850 -0.042750
				CHANNELS 3 Zrotation Yrotation Xrotation
				JOINT Neck
				{
					OFFSET 0.000000 0.000000 0.000000
					CHANNELS 3 Zrotation Yrotation Xrotation
					JOINT Neck1
					{
						OFFSET -0.054170 1.746240 0.172020
						CHANNELS 3 Zrotation Yrotation Xrotation
						JOINT Head
						{
							OFFSET 0.104070 1.761360 -0.123970
							CHANNELS 3 Zrotation Yrotation Xrotation
							End Site
							{
								OFFSET 0.000000 0.000000 0.000000
							}
						}
					}
				}
				JOINT LeftShoulder
				{
					OFFSET 0.000000 0.000000 0.000000
					CHANNELS 3 Zrotation Yrotation Xrotation
					JOINT LeftArm
					{
						OFFSET 3.362410 1.200890 -0.311210
						CHANNELS 3 Zrotation Yrotation Xrotation
						JOINT LeftForeArm
						{
							OFFSET 4.983000 -0.000000 -0.000000
							CHANNELS 3 Zrotation Yrotation Xrotation
							JOINT LeftHand
							{
								OFFSET 3.483560 -0.000000 -0.000000
								CHANNELS 3 Zrotation Yrotation Xrotation
								JOINT LeftFingerBase
								{
									OFFSET 0.000000 0.000000 0.000000
									CHANNELS 3 Zrotation Yrotation Xrotation
									JOINT LeftHandIndex1
									{
										OFFSET 0.715260 -0.000000 -0.000000
										CHANNELS 3 Zrotation Yrotation Xrotation
										End Site
										{
											OFFSET 0.000000 0.000000 0.000000
										}
									}
								}
								JOINT LThumb
								{
									OFFSET 0.000000 0.000000 0.000000
									CHANNELS 3 Zrotation Yrotation Xrotation
									End Site
									{
										OFFSET 0.000000 0.000000 0.000000
									}
								}
							}
						}
					}
				}
				JOINT RightShoulder
				{
					OFFSET 0.000000 0.000000 0.000000
					CHANNELS 3 Zrotation Yrotation Xrotation
					JOINT RightArm
					{
						OFFSET -3.136600 1.374050 -0.404650
						CHANNELS 3 Zrotation Yrotation Xrotation
						JOINT RightForeArm
						{
							OFFSET -5.241900 -0.000000 -0.000000
							CHANNELS 3 Zrotation Yrotation Xrotation
							JOINT RightHand
							{
								OFFSET -3.444170 -0.000000 -0.000000
								CHANNELS 3 Zrotation Yrotation Xrotation
								JOINT RightFingerBase
								{
									OFFSET 0.000000 0.000000 0.000000
									CHANNELS 3 Zrotation Yrotation Xrotation
									JOINT RightHandIndex1
									{
										OFFSET -0.622530 -0.000000 -0.000000
										CHANNELS 3 Zrotation Yrotation Xrotation
										End Site
										{
											OFFSET 0.000000 0.000000 0.000000
										}
									}
								}
								JOINT RThumb
								{
									OFFSET 0.000000 0.000000 0.000000
									CHANNELS 3 Zrotation Yrotation Xrotation
									End Site
									{
										OFFSET 0.000000 0.000000 0.000000
									}
								}
							}
						}
					}
				}
			}
		}
	}
}
MOTION
Frames: 10
Frame Time: 0.008333
9.613955 17.850663 49.827935 -177.526430 3.258800 -178.392188 -1.188652 3.053669 1.629266 -18.907929 -22.687278 -3.169509 -2.596275 8.601688 24.377833 -6.456162 19.559920 -12.779512 0.000200 -0.088400 -0.242900 -2.872138 -3.081624 0.808380 25.771521 19.285600 -2.579095 2.150074 -8.354660 25.531243 4.922215 -19.657220 -18.832479 -0.947200 -6.198100 17.360400 2.887471 1.189441 4.856018 2.115144 1.830633 2.695050 -4.421339 0.780983 -11.090254 -7.502595 -2.104353 -11.154908 13.580744 -3.628998 8.546448 2.514900 -1.562300 3.358000 -1.992191 -10.982774 1.531013 -89.344918 8.668606 22.156607 23.652687 -23.522421 -6.244854 1.680509 1.009751 13.926907 7.938197 -32.767184 -3.719100 -7.125000 0.000000 0.000000 -14.280400 -3.547400 15.617400 0.587437 10.658278 2.488078 89.058305 -7.573412 40.799521 -21.402523 24.567749 -6.269311 1.140312 0.552611 14.092080 0.491472 -54.822708 0.387300 7.125000 0.000000 0.000000 80.265300 -72.120300 -61.270700 
9.604164 17.852787 49.813898 -177.263770 2.693321 -178.361776 -1.160706 3.052537 1.615129 -18.625383 -22.712250 -3.303525 -2.539145 8.665641 24.553013 -6.382550 19.315397 -12.430069 0.096100 -1.999500 -5.504300 -2.869913 -3.097796 0.827989 26.085294 19.111684 -2.377791 2.221310 -8.245518 25.252254 5.043542 -20.104319 -19.134366 -0.913600 -6.090500 17.047200 3.168624 1.040959 4.712710 2.218344 1.647017 2.747710 -4.525005 0.677251 -10.990973 -7.496650 -2.082489 -11.129224 13.668976 -3.605445 8.373041 2.541000 -1.557500 3.299700 -1.990630 -10.996710 1.536560 -89.370800 8.845026 22.019497 23.612951 -23.487584 -6.243280 1.680865 1.027194 14.320412 8.406416 -33.141087 -4.035200 -7.125000 0.000000 0.000000 -14.044600 -4.002900 15.448700 0.584801 10.647483 2.470388 89.298575 -7.492432 40.180884 -21.449126 24.610038 -6.272936 1.144507 0.546824 14.384964 0.354569 -54.567730 0.500000 7.125000 0.000000 0.000000 79.427000 -72.124500 -60.452900 
9.591424 17.855264 49.805050 -177.075979 2.903610 -178.112179 -1.169623 3.021550 1.579476 -18.430539 -22.830312 -3.441290 -2.547944 8.665124 24.544249 -6.381259 19.317332 -12.617218 0.291700 -3.473300 -9.599500 -2.867871 -3.071119 0.800116 26.157477 19.251226 -2.570863 2.235121 -8.251782 25.186056 5.110884 -20.238416 -18.940685 -0.846600 -5.868500 16.403200 3.447142 1.136501 4.559400 2.242430 1.792329 2.576291 -4.692079 0.728698 -10.908077 -7.774348 -1.987942 -11.025885 14.003002 -3.502095 8.231373 2.699200 -1.513400 3.249300 -1.984005 -11.021476 1.561537 -89.365288 9.229421 22.208340 23.685388 -23.563934 -6.287751 1.657344 1.047686 14.490199 9.110822 -33.287431 -4.479200 -7.125000 0.000000 0.000000 -13.659000 -4.266900 15.058400 0.593567 10.612758 2.452484 89.545152 -7.485765 39.689920 -21.500507 24.636112 -6.247690 1.163579 0.526192 14.710243 -0.574732 -53.504549 1.264100 7.125000 0.000000 0.000000 75.706400 -72.233000 -56.990200 
9.577622 17.849601 49.792074 -177.147423 2.795726 -178.167745 -1.177373 3.041651 1.575837 -18.638491 -23.041202 -3.243737 -2.548161 8.670033 24.569421 -6.391782 19.385490 -12.748496 1.092900 -6.643500 -18.663300 -2.866217 -3.093644 0.813976 26.079137 19.348155 -2.432438 2.244511 -8.230694 25.148776 5.181965 -20.461681 -19.066446 -0.841000 -5.849600 16.348700 3.461875 1.104993 4.590301 2.189819 1.749563 2.586869 -4.702700 0.710985 -10.927725 -7.881711 -1.943135 -10.888716 14.081163 -3.454257 8.078311 2.742500 -1.501700 3.176500 -1.972913 -11.026238 1.565400 -89.401948 9.529358 22.460019 23.704924 -23.565071 -6.285686 1.645291 1.044924 14.623574 9.336996 -32.932225 -4.576900 -7.125000 0.000000 0.000000 -13.504900 -3.952400 14.809300 0.601111 10.584384 2.439807 89.640264 -7.552928 39.482964 -21.595421 24.731830 -6.262022 1.169783 0.515575 14.810273 -0.995579 -52.872998 1.599000 7.125000 0.000000 0.000000 73.548100 -72.222800 -54.938200 
9.563938 17.852197 49.783816 -177.266140 3.356685 -177.946389 -1.189817 2.993805 1.541768 -18.814729 -22.955532 -3.401260 -2.566095 8.687420 24.594860 -6.484874 19.694319 -13.180121 1.117000 -6.714100 -18.871100 -2.851308 -3.067188 0.789873 25.760295 19.549164 -2.654022 2.239400 -8.238429 25.100900 5.204915 -20.353609 -18.613091 -0.777400 -5.629200 15.712400 3.204000 1.338852 4.532518 2.210805 2.042388 2.404894 -4.610023 0.869015 -10.921197 -7.695173 -1.991370 -10.841222 13.797504 -3.506066 8.065836 2.612200 -1.531300 3.152800 -1.994836 -11.000601 1.566155 -89.464542 9.713125 22.634307 23.664025 -23.495379 -6.254871 1.645089 1.038210 14.712267 9.319060 -32.615130 -4.529300 -7.125000 0.000000 0.000000 -13.492500 -3.636400 14.724700 0.594961 10.590198 2.459787 89.688718 -7.726049 39.194172 -21.787349 24.965658 -6.359238 1.152948 0.525560 14.891065 -0.196785 -53.249926 0.944100 7.125000 0.000000 0.000000 75.138600 -72.036000 -56.215200 
9.552849 17.848894 49.767537 -177.272889 3.168578 -178.022577 -1.177443 3.011425 1.559351 -18.892907 -22.895305 -3.298525 -2.568339 8.675541 24.577849 -6.439105 19.583284 -13.123986 1.132300 -6.758200 -19.000900 -2.850503 -3.081890 0.796521 25.790806 19.553025 -2.513566 2.224858 -8.258770 25.199982 5.195107 -20.408205 -18.862783 -0.812900 -5.753600 16.071200 3.070159 1.325990 4.617177 2.310847 2.021864 2.386107 -4.524845 0.866489 -10.990946 -7.586349 -2.040474 -10.901032 13.603878 -3.555025 8.158338 2.528600 -1.551500 3.184600 -2.009678 -10.966873 1.560157 -89.576096 9.903188 22.691784 23.605452 -23.418063 -6.229396 1.633131 1.053934 14.839494 9.771730 -32.624223 -4.802000 -7.125000 0.000000 0.000000 -13.238100 -3.728300 14.451800 0.585423 10.594358 2.471780 89.753191 -7.927354 38.760355 -21.970406 25.183181 -6.440253 1.141469 0.527829 15.063804 0.338514 -53.333932 0.499900 7.125000 0.000000 0.000000 75.682000 -71.866400 -56.528100 
9.534801 17.844057 49.754561 -177.031689 2.778135 -178.068196 -1.154821 3.030013 1.567178 -18.694268 -22.891197 -3.261611 -2.557258 8.658668 24.542339 -6.375448 19.354137 -12.770530 1.126400 -6.741100 -18.950700 -2.857716 -3.084059 0.790742 26.065144 19.351206 -2.482471 2.209350 -8.297653 25.322940 5.230608 -20.609648 -19.086920 -0.808100 -5.737000 16.023100 3.332125 1.220571 4.782598 2.467354 1.919773 2.294746 -4.639903 0.792628 -11.105409 -7.624058 -2.041594 -10.881700 13.618654 -3.557658 8.125086 2.536100 -1.555100 3.166700 -2.016224 -10.949961 1.562469 -89.712823 10.205838 22.762971 23.618112 -23.427266 -6.235873 1.623114 1.058097 14.948519 10.016857 -32.516957 -4.936900 -7.125000 0.000000 0.000000 -13.090300 -3.665100 14.268000 0.579066 10.574108 2.478012 89.799257 -8.070474 38.450680 -22.065933 25.289796 -6.476073 1.137443 0.526009 15.209685 0.491663 -53.252649 0.371100 7.125000 0.000000 0.000000 75.523500 -71.791600 -56.287400 
9.517106 17.839221 49.738872 -177.282952 2.445242 -178.234003 -1.151716 3.051174 1.582866 -19.092475 -22.924376 -3.031441 -2.550735 8.656716 24.563528 -6.212704 18.994734 -12.657201 1.091800 -6.640300 -18.653900 -2.850144 -3.114237 0.820294 25.765969 18.973691 -2.462101 2.178553 -8.318529 25.445298 5.273830 -20.717896 -19.158487 -0.733900 -5.473300 15.263500 3.043415 1.129560 4.919203 2.498047 1.775565 2.371381 -4.465319 0.749630 -11.199636 -7.646712 -2.032947 -10.898325 13.481503 -3.527101 8.044460 2.493800 -1.547900 3.132200 -2.018970 -10.931252 1.550648 -89.905733 10.458322 23.029850 23.667488 -23.463612 -6.247979 1.635490 1.029110 14.713950 9.285822 -32.100127 -4.452400 -7.125000 0.000000 0.000000 -13.472500 -3.118600 14.585800 0.576387 10.561148 2.482910 89.699890 -8.167490 38.253564 -22.147482 25.390218 -6.517110 1.131864 0.525602 15.272725 0.741194 -53.397161 0.164400 7.125000 0.000000 0.000000 76.080200 -71.738000 -56.753000 
9.500591 17.837805 49.727901 -177.347832 2.339626 -178.292199 -1.161153 3.062806 1.600655 -19.243962 -22.976588 -2.925028 -2.549430 8.656923 24.579948 -6.157476 18.885123 -12.696159 1.009300 -6.392400 -17.927200 -2.855285 -3.123480 0.842578 25.606293 18.640841 -2.573991 2.147483 -8.350382 25.566559 5.199124 -20.480109 -19.104477 -0.707800 -5.377100 14.987300 3.167862 1.069375 4.811220 2.387079 1.688649 2.621064 -4.534954 0.707110 -11.087265 -7.744643 -1.964234 -10.976802 13.541856 -3.418527 7.796475 2.527400 -1.506100 3.064300 -2.004918 -10.974658 1.538266 -89.966455 10.387989 22.957960 23.716092 -23.511410 -6.243906 1.693114 0.950363 14.050028 7.091039 -31.429891 -3.106300 -7.125000 0.000000 0.000000 -14.684100 -2.085500 15.727000 0.585048 10.549095 2.461286 89.702620 -7.994393 38.103677 -22.190651 25.418858 -6.510585 1.141813 0.515227 15.349890 0.244384 -52.790825 0.572200 7.125000 0.000000 0.000000 74.009800 -71.758200 -54.816600 
9.484901 17.836743 49.720587 -177.345762 2.485499 -178.235016 -1.164135 3.046453 1.607208 -19.289475 -22.869156 -2.982589 -2.559206 8.652024 24.566408 -6.200084 19.009224 -12.825077 1.034800 -6.470300 -18.155200 -2.852601 -3.108555 0.842453 25.440421 18.434904 -2.831488 2.108057 -8.410064 25.717475 5.079983 -20.076957 -18.897456 -0.724200 -5.437700 15.161200 3.186380 1.101834 4.736250 2.414915 1.723888 2.734281 -4.556151 0.729201 -11.021290 -7.959267 -1.903538 -11.096620 13.785379 -3.328715 7.637246 2.645000 -1.466000 3.041200 -2.012668 -11.003364 1.534542 -90.193076 10.503593 22.789139 23.662764 -23.449560 -6.227770 1.673059 0.980772 14.678219 8.141822 -31.599519 -3.727300 -7.125000 0.000000 0.000000 -14.094700 -2.430200 15.137500 0.588614 10.535874 2.444434 89.682374 -7.777183 37.856720 -22.153111 25.352357 -6.462583 1.154478 0.503108 15.442540 -0.242725 -52.085639 0.966800 7.125000 0.000000 0.000000 71.651200 -71.727500 -52.584000 
